<svg xmlns="http://www.w3.org/2000/svg" width="256" height="256" viewBox="0 0 100 100"><rect width="100" height="100" rx="50" fill="#f6dfe4"></rect><path d="M28.95 72.20L28.95 72.20Q26.36 72.20 23.62 71.70Q20.87 71.20 18.52 70.48Q16.18 69.76 14.80 69.09L14.80 69.09L15.72 60.80Q17.85 61.83 20.17 62.72Q22.49 63.60 24.93 64.15Q27.37 64.70 29.87 64.70L29.87 64.70Q32.98 64.70 34.87 63.48Q36.76 62.26 36.76 59.76L36.76 59.76Q36.76 57.84 35.70 56.66Q34.63 55.49 32.43 54.56Q30.24 53.63 26.82 52.44L26.82 52.44Q23.40 51.25 20.69 49.74Q17.97 48.23 16.39 45.91Q14.80 43.60 14.80 40.00L14.80 40.00Q14.80 36.46 16.54 33.70Q18.28 30.94 21.74 29.37Q25.20 27.80 30.36 27.80L30.36 27.80Q34.26 27.80 37.80 28.67Q41.34 29.53 43.84 30.54L43.84 30.54L43.05 38.53Q39.45 36.92 36.29 36.08Q33.13 35.24 29.87 35.24L29.87 35.24Q26.45 35.24 24.59 36.37Q22.73 37.50 22.73 39.75L22.73 39.75Q22.73 41.55 23.77 42.65Q24.81 43.75 26.73 44.53Q28.65 45.30 31.33 46.16L31.33 46.16Q35.97 47.62 39.13 49.37Q42.28 51.13 43.88 53.61Q45.49 56.10 45.49 59.76L45.49 59.76Q45.49 61.59 44.91 63.74Q44.33 65.89 42.62 67.81Q40.91 69.73 37.63 70.97Q34.35 72.20 28.95 72.20ZM75.25 54.39L75.25 61.22L57.38 61.22L57.38 54.39L75.25 54.39ZM77.63 71.35L65.31 36.28L67.32 36.28L55.00 71.35L47.44 71.35L62.63 28.65L70.01 28.65L85.20 71.35L77.63 71.35Z" fill="#ffffff"></path></svg>