<?xml version="1.0" encoding="UTF-8"?><svg id="Layer_1" xmlns="http://www.w3.org/2000/svg" width="148.94" height="20.77" viewBox="0 0 148.94 20.77"><defs><style>.cls-1{fill:#1d1d1b;}</style></defs><path class="cls-1" d="M5.04,15.55c-.52,0-1.04-.04-1.58-.13-.53-.09-1.03-.2-1.48-.34s-.82-.27-1.1-.41l.26-2.21c.38,.19,.8,.37,1.26,.54s.93,.31,1.44,.42,1.01,.17,1.52,.17c.68,0,1.23-.13,1.64-.39,.41-.26,.62-.66,.62-1.2,0-.41-.11-.75-.33-1.01-.22-.26-.56-.48-1.01-.68-.45-.19-1.02-.41-1.71-.63-.68-.22-1.29-.48-1.85-.77-.55-.29-.99-.67-1.32-1.13s-.49-1.06-.49-1.79c0-.68,.17-1.29,.51-1.83,.34-.53,.85-.95,1.53-1.25,.68-.3,1.51-.45,2.51-.45,.79,0,1.54,.09,2.23,.26,.7,.17,1.28,.36,1.76,.57l-.22,2.16c-.7-.35-1.35-.61-1.98-.77-.62-.17-1.26-.25-1.91-.25-.7,0-1.25,.12-1.66,.36-.41,.24-.61,.61-.61,1.12,0,.38,.1,.68,.31,.92,.21,.23,.51,.44,.9,.6s.87,.34,1.44,.51c.9,.28,1.66,.59,2.29,.94,.62,.34,1.1,.76,1.42,1.25,.32,.49,.48,1.1,.48,1.83,0,.42-.07,.84-.22,1.27-.14,.43-.4,.82-.76,1.17-.36,.35-.86,.63-1.5,.85-.64,.21-1.44,.32-2.41,.32Z"/><path class="cls-1" d="M13.67,15.3V2.7h2.09V15.3h-2.09Z"/><path class="cls-1" d="M25.91,15.55c-1.27,0-2.38-.27-3.32-.81s-1.67-1.3-2.19-2.29c-.52-.98-.78-2.14-.78-3.47s.28-2.47,.84-3.45c.56-.98,1.33-1.74,2.32-2.28,.99-.54,2.12-.81,3.4-.81,.67,0,1.31,.07,1.92,.21,.61,.14,1.14,.31,1.58,.52l-.22,1.94c-.47-.2-.98-.37-1.52-.5-.55-.13-1.13-.2-1.75-.2-.98,0-1.79,.2-2.43,.6-.63,.4-1.1,.94-1.41,1.63-.31,.68-.46,1.45-.46,2.31s.15,1.69,.46,2.38c.31,.7,.78,1.24,1.4,1.64,.63,.4,1.42,.59,2.37,.59,.26,0,.56-.02,.89-.06,.33-.04,.65-.1,.97-.19v-2.57h-1.82v-1.77h3.91v5.62c-.46,.26-1.05,.49-1.77,.67s-1.53,.28-2.41,.28Z"/><path class="cls-1" d="M34.17,15.3V2.7h2.12l5.69,8.6V2.7h2.1V15.3h-1.74l-6.07-9.12V15.3h-2.09Z"/><path class="cls-1" d="M48.68,15.3V2.7h7.93v1.98h-5.81v3.05h4.55v1.98h-4.55v3.61h5.98v1.98h-8.1Z"/><path class="cls-1" d="M65.88,15.3l1.73-12.6h1.73l3.17,5.92,3.13-5.92h1.75l1.72,12.6h-2.18l-1.23-9.77,.57,.11-3.75,6.88-3.78-6.88,.57-.1-1.23,9.75h-2.18Z"/><path class="cls-1" d="M87.04,4.74h.56l-3.73,10.56h-2.07l4.49-12.6h2.04l4.5,12.6h-2.08l-3.72-10.56Zm2.93,7.42h-5.32v-1.84h5.32v1.84Z"/><path class="cls-1" d="M96.11,15.3V2.7h4.7c1.21,0,2.28,.25,3.22,.75,.94,.5,1.68,1.22,2.21,2.16,.53,.94,.8,2.07,.8,3.39s-.27,2.45-.8,3.39c-.53,.94-1.27,1.66-2.21,2.16-.94,.5-2.01,.75-3.22,.75h-4.7Zm2.09-1.87h2.61c.87,0,1.6-.18,2.18-.54,.58-.36,1.02-.88,1.32-1.54,.3-.66,.45-1.44,.45-2.34s-.15-1.68-.45-2.34-.74-1.18-1.32-1.54c-.58-.36-1.31-.54-2.18-.54h-2.61V13.43Z"/><path class="cls-1" d="M114.55,15.55c-.52,0-1.04-.04-1.58-.13-.53-.09-1.03-.2-1.48-.34s-.82-.27-1.1-.41l.26-2.21c.38,.19,.8,.37,1.26,.54s.93,.31,1.44,.42,1.01,.17,1.52,.17c.68,0,1.23-.13,1.64-.39,.41-.26,.62-.66,.62-1.2,0-.41-.11-.75-.33-1.01-.22-.26-.56-.48-1.01-.68-.45-.19-1.02-.41-1.71-.63-.68-.22-1.29-.48-1.85-.77s-.99-.67-1.32-1.13-.49-1.06-.49-1.79c0-.68,.17-1.29,.51-1.83s.85-.95,1.53-1.25c.68-.3,1.51-.45,2.51-.45,.79,0,1.54,.09,2.23,.26,.7,.17,1.28,.36,1.75,.57l-.22,2.16c-.7-.35-1.35-.61-1.98-.77-.62-.17-1.26-.25-1.91-.25-.7,0-1.25,.12-1.66,.36-.41,.24-.61,.61-.61,1.12,0,.38,.1,.68,.31,.92,.21,.23,.51,.44,.91,.6,.39,.17,.87,.34,1.44,.51,.9,.28,1.66,.59,2.29,.94,.62,.34,1.1,.76,1.42,1.25,.32,.49,.48,1.1,.48,1.83,0,.42-.07,.84-.22,1.27-.14,.43-.4,.82-.76,1.17-.36,.35-.86,.63-1.5,.85s-1.44,.32-2.41,.32Z"/><path class="cls-1" d="M123.18,15.3V2.7h7.93v1.98h-5.8v3.05h4.54v1.98h-4.54v3.61h5.98v1.98h-8.1Z"/><path class="cls-1" d="M135.12,15.3V2.7h2.11l5.69,8.6V2.7h2.1V15.3h-1.74l-6.08-9.12V15.3h-2.09Z"/></svg>