<?xml version="1.0" encoding="UTF-8"?><svg id="Layer_1" xmlns="http://www.w3.org/2000/svg" width="112.61" height="116.07" viewBox="0 0 112.61 116.07"><defs><style>.cls-1{fill:#1d1d1b;}</style></defs><path class="cls-1" d="M3.67,96.7c6.51,4.01,16.03,7.35,26.05,7.35,14.86,0,23.55-7.85,23.55-19.21,0-10.52-6.01-16.53-21.21-22.38C13.69,55.95,2.34,46.43,2.34,30.56,2.34,13.03,16.87,0,38.75,0c11.52,0,19.87,2.67,24.88,5.51l-4.01,11.86c-3.67-2-11.19-5.34-21.38-5.34-15.36,0-21.21,9.19-21.21,16.87,0,10.52,6.85,15.7,22.38,21.71,19.04,7.35,28.73,16.53,28.73,33.07,0,17.37-12.86,32.4-39.41,32.4-10.86,0-22.71-3.17-28.73-7.18l3.67-12.19Z"/><path class="cls-1" d="M47.97,77.31l-11.2,33.92h-14.4L59.01,3.39h16.8l36.8,107.84h-14.88l-11.52-33.92H47.97Zm35.36-10.88l-10.56-31.04c-2.4-7.04-4-13.44-5.6-19.68h-.32c-1.6,6.4-3.36,12.96-5.44,19.52l-10.56,31.2h32.48Z"/></svg>